<svg width="46" height="32" viewBox="0 0 46 32" fill="none" xmlns="http://www.w3.org/2000/svg">
<g clip-path="url(#clip0_2006_389)">
<path d="M0 30.2575C0.424141 29.7822 1.19531 29.2674 1.19531 28.7525C1.31098 25.5842 1.34954 22.4159 1.27242 19.2872C1.23386 17.901 1.658 17.1089 2.96899 16.9109C4.58843 16.6733 4.8969 15.6832 4.8969 14.1386C4.85834 7.92082 4.8969 7.92082 10.565 5.90102C15.4619 4.15845 20.3973 2.45548 25.2557 0.594091C27.3378 -0.197988 29.1115 -0.158384 31.1551 0.712903C35.3579 2.61389 35.3965 2.49508 35.435 7.24756C35.435 7.88122 35.435 8.51488 35.435 9.02973C37.9028 9.7426 40.1006 10.4951 42.337 11.0099C43.8407 11.3664 44.4191 12.0792 44.3806 13.703C44.3034 18.4555 44.4191 23.208 44.4577 27.9208C44.4577 28.8713 44.2263 29.9406 45.5759 30.2971C45.8072 30.3367 46.0386 30.9703 46 31.2476C45.9229 31.5248 45.5373 31.7624 45.1903 31.9208C44.9204 32.0396 44.5733 31.9604 44.2263 31.9604C29.9212 31.9604 15.6161 31.9208 1.31098 31.9208C0.925398 31.9208 0.501257 32.0396 0.154233 31.8812M25.9497 15.2872C25.9111 14.5347 25.7955 12.3961 24.793 12.198C23.8676 12.0792 22.2481 12.2773 21.6697 12.9109C20.86 13.7822 20.4744 15.2476 20.3202 16.4753C19.9732 19.5248 19.8961 22.6535 19.8575 25.7426C19.7804 30.3763 19.8575 30.3367 24.3688 30.2179C25.7569 30.1782 26.1425 29.6634 26.1039 28.3565C26.0268 26.099 26.1039 23.8812 26.1039 21.6238M16.58 24C16.4644 22.2178 16.4644 20.4357 16.233 18.6931C16.0788 17.505 15.6547 16.2773 15.1534 15.1683C14.9606 14.7327 14.3822 14.2971 13.6111 14.2971C13.0327 14.6931 13.0712 15.3268 13.0712 15.8416C13.0327 20.1188 13.0712 24.3565 13.0327 28.6337C13.0327 30.0198 13.6882 30.2179 14.8064 30.2179C16.0402 30.2179 16.5415 29.8218 16.5029 28.5149M40.6018 18.8119C39.4451 20.1584 38.5968 25.9802 39.2909 27.0891C39.4837 27.406 40.0235 27.604 40.409 27.5644C40.7946 27.5644 41.4501 27.2476 41.4501 27.0099C41.6044 24.3565 42.0285 21.6238 40.6018 18.8119ZM4.81978 22.0198C4.54987 21.703 4.20285 21.6238 3.81727 21.9406C3.70159 23.6832 3.5088 25.4258 3.43168 27.1683C3.43168 27.406 3.85583 27.6436 4.12573 27.8812C4.35708 27.6436 4.78122 27.3664 4.78122 27.1287C4.85834 25.4654 4.81978 23.7228 4.81978 22.0198Z" fill="white"/>
</g>
<defs>
<clipPath id="clip0_2006_389">
<rect width="46" height="32" fill="white"/>
</clipPath>
</defs>
</svg>
