<svg width="37" height="41" viewBox="0 0 37 41" fill="none" xmlns="http://www.w3.org/2000/svg">
<g clip-path="url(#clip0_2006_385)">
<path d="M10.6682 33.2244C10.4947 32.5021 10.1911 31.8648 10.1911 31.1425C9.97421 25.7467 13.4009 22.6026 17.5651 20.0109C19.0399 19.0762 21.3822 18.9487 20.905 15.9322C20.9918 18.9487 23.3341 19.2886 24.9824 20.3508C28.5827 22.6876 31.5322 25.4917 31.8793 30.0803C32.0961 32.842 31.8792 33.1394 29.0164 33.1394C28.2356 33.1394 27.4115 33.1394 26.6307 33.2244C27.5416 33.2244 28.4525 33.2244 29.32 33.2244C31.272 33.1819 32.8769 33.2244 32.5299 36.071C32.3998 37.0482 34.0914 38.2379 34.959 39.3C35.2192 39.5974 35.6096 39.7674 35.9566 39.9798C34.3517 41.3819 0.344666 41.3394 -1 39.8949C-0.52286 39.6824 -0.0457209 39.555 0.257913 39.2575C0.908558 38.6627 1.90621 37.9829 1.94959 37.2607C2.1231 34.1591 2.03634 31.0151 1.99297 27.871C1.99297 27.2762 1.64596 26.6814 1.3857 26.1715C0.865182 25.1943 0.518171 24.3871 1.99297 23.8347C2.2966 23.7073 2.51348 22.9 2.51348 22.3902C2.47011 20.2658 2.25322 18.184 2.25322 16.0596C2.2966 14.785 2.99062 13.4679 2.86049 12.2358C2.42673 7.98708 3.59789 4.07827 5.07268 -0.0429688C5.63658 1.699 6.3306 3.22853 6.54748 4.84304C6.93787 7.47724 6.63423 10.2389 7.28488 12.7881C8.06565 15.8897 6.93787 18.9063 7.41501 21.9653C7.50176 22.5601 7.54513 23.5798 7.84877 23.6648C9.71395 24.2171 8.80305 25.1943 8.62954 26.3415C8.19578 29.7404 8.19578 33.2244 7.9789 37.0907C10.4947 36.241 8.19578 33.012 10.6682 33.2244Z" fill="white"/>
</g>
<defs>
<clipPath id="clip0_2006_385">
<rect width="37" height="41" fill="white"/>
</clipPath>
</defs>
</svg>
