<svg width="56" height="57" viewBox="0 0 56 57" fill="none" xmlns="http://www.w3.org/2000/svg">
<g clip-path="url(#clip0_2006_391)">
<path d="M24.2068 39.6196C24.2068 36.8648 24.2567 34.1099 24.2068 31.3551C24.1569 29.7022 24.8557 29.1512 26.4528 29.2013C33.041 29.3015 31.7434 28.6003 31.8432 34.3604C31.8931 38.718 31.8432 43.0256 31.943 47.3832C31.9929 49.2365 31.5437 50.088 29.4475 50.0379C23.2585 49.8876 24.3565 50.5388 24.2567 44.8788C24.1569 43.1258 24.2068 41.3727 24.2068 39.6196Z" fill="white"/>
<path d="M55.9501 56.8497C37.3333 57.1503 18.7166 56.9499 0.149733 56.8998C0.0998218 56.5492 0.0499109 56.2487 0 55.8981C0.748663 55.6977 1.49733 55.3972 2.24599 55.3972C7.28699 55.3471 12.3779 55.297 17.4189 55.3972C19.1658 55.4473 20.5134 55.0466 21.4118 53.4938C22.6595 51.29 24.5562 50.7891 27.0517 50.739C30.5455 50.6889 33.59 50.9895 35.5865 54.3954C35.9358 54.9965 37.3333 55.2469 38.2317 55.2469C43.3725 55.3471 48.5134 55.297 53.6542 55.3471C54.4528 55.3471 55.2513 55.5975 56.0998 55.7478C56 56.0984 56 56.449 55.9501 56.8497Z" fill="white"/>
<path d="M53.9037 11.3699C47.7647 11.3699 41.6257 11.3699 34.8877 11.3699C35.6863 10.268 36.0856 9.06589 36.6346 8.96571C38.8307 8.6151 39.7291 6.81193 41.1266 5.50965C43.3725 3.30578 46.9661 4.00701 48.9127 6.66167C49.5116 7.46308 50.6096 7.81369 51.4581 8.41474C52.4563 9.06589 53.4046 9.76712 54.3529 10.4683C54.2032 10.7689 54.0535 11.0694 53.9037 11.3699Z" fill="white"/>
<path d="M39.2801 37.9161C38.2818 37.9161 37.2836 37.9161 36.2854 37.9161C32.6419 37.8159 32.6419 37.8159 32.6419 34.1595C32.6419 32.6068 32.1927 30.9038 34.2391 30.1525C36.485 29.351 38.6312 29.6015 40.1784 31.3546C41.2266 32.5567 42.2248 33.4583 43.8219 34.0092C44.7203 34.3097 45.2194 35.8124 45.8683 36.8141C44.9699 37.1648 44.1214 37.7157 43.223 37.866C41.9253 37.9662 40.5777 37.866 39.2801 37.9161C39.2801 37.866 39.2801 37.866 39.2801 37.9161Z" fill="white"/>
<path d="M28.2497 0C28.7488 1.2522 29.1481 2.50439 29.747 3.65641C30.1463 4.45782 30.6953 5.20914 31.1944 5.91037C31.993 7.0123 31.993 8.06415 30.4458 8.2645C28.8985 8.46485 27.3014 8.46485 25.7542 8.21441C25.305 8.16432 24.5064 6.91213 24.6561 6.56151C25.7043 4.40773 26.952 2.30404 28.2497 0Z" fill="white"/>
<path d="M15.622 11.9205C15.4224 14.475 14.524 15.5269 12.7272 15.5769C10.9803 15.627 9.93218 14.6754 9.73253 12.9223C9.5828 11.3195 11.0801 9.5664 12.6274 9.9671C13.8252 10.2676 14.8734 11.3696 15.622 11.9205Z" fill="white"/>
<path d="M26.0537 22.74C26.7026 22.0889 27.3015 20.8868 28.0002 20.8367C29.8968 20.5862 29.5974 22.189 29.5475 23.3912C29.5475 23.6416 29.5475 23.892 29.4976 24.1425C28.9985 25.3446 28.4993 26.4966 27.9503 27.6486C27.5011 26.3964 27.002 25.1943 26.5528 23.9421C26.453 23.7418 26.5029 23.4412 26.5029 23.1908C26.3532 23.0405 26.2034 22.8903 26.0537 22.74Z" fill="white"/>
<path d="M8.43475 1.70312C6.88751 3.25585 5.78947 4.35778 4.64152 5.5098C3.99268 4.7084 2.94455 3.40611 1.69678 1.90348C2.79482 2.25409 3.89286 2.55462 5.14063 2.95532C5.98911 2.60471 7.08715 2.204 8.43475 1.70312Z" fill="white"/>
<path d="M28.5989 13.874C28.8983 15.4267 29.3475 16.9795 29.4973 18.5322C29.5472 18.8828 28.549 19.7844 28.1497 19.6842C27.5507 19.584 26.6523 18.7826 26.6523 18.3819C26.7522 16.8793 27.2014 15.3767 27.5008 13.874C27.8502 13.874 28.1996 13.874 28.5989 13.874Z" fill="white"/>
<path d="M25.0054 27.4986C24.4065 25.7455 23.7078 23.9925 23.2586 22.1893C23.1587 21.8387 23.9573 21.2877 24.3067 20.8369C24.7559 21.2376 25.4546 21.5882 25.5545 21.9889C25.8539 23.6919 25.9038 25.3949 26.1035 27.148C25.7541 27.2983 25.3548 27.3984 25.0054 27.4986Z" fill="white"/>
<path d="M29.9966 27.148C30.1962 25.445 30.296 23.6919 30.5955 21.9889C30.6953 21.5381 31.3941 21.2376 31.8433 20.8369C32.1927 21.2877 32.9413 21.8387 32.8415 22.1893C32.3424 23.9925 31.6936 25.7455 31.0447 27.4986C30.6454 27.3984 30.346 27.2983 29.9966 27.148Z" fill="white"/>
<path d="M31.9429 28.0995C32.5917 25.8956 33.0908 24.0924 33.6898 22.3895C33.8395 21.9387 34.5881 21.7383 35.0373 21.3877C35.3368 21.8886 35.9357 22.4395 35.8858 22.8402C35.4865 25.0942 34.2388 26.7972 31.9429 28.0995Z" fill="white"/>
<path d="M23.2587 28.1996C22.2106 26.5467 21.1125 24.8938 20.264 23.1408C20.0644 22.7902 20.7132 21.9887 21.0127 21.3877C21.5118 21.7884 22.2106 22.0889 22.4102 22.5898C23.059 24.2427 23.5082 25.9457 24.0573 27.6487C23.7578 27.849 23.5082 27.9993 23.2587 28.1996Z" fill="white"/>
<path d="M31.7432 13.874C34.5382 15.4768 35.7859 17.3802 35.9856 20.0849C34.2886 20.1851 34.2886 20.1851 31.7432 13.874Z" fill="white"/>
<path d="M11.2799 23.1904C7.73622 27.1975 9.28346 27.3978 5.49023 23.1904C7.38685 23.1904 9.23355 23.1904 11.2799 23.1904Z" fill="white"/>
<path d="M28.0001 12.6221C27.0518 11.8207 26.0536 11.42 25.9038 10.7689C25.5545 9.11599 26.952 9.26625 28.0001 9.26625C29.0482 9.26625 30.4457 9.16608 30.0964 10.7689C30.0464 11.42 28.9484 11.8708 28.0001 12.6221Z" fill="white"/>
<path d="M20.1143 20.1357C20.264 17.5311 21.4119 15.6779 23.6579 14.2754C23.3585 18.3325 22.3103 20.1858 20.1143 20.1357Z" fill="white"/>
<path d="M26.2034 14.8262C26.0038 16.1786 25.9539 17.581 25.5546 18.8833C25.4049 19.3341 24.5065 19.5345 23.9075 19.8851C23.7079 19.4343 23.2587 18.8332 23.4084 18.4826C23.9574 17.1302 24.6562 15.7779 25.305 14.4756C25.6045 14.5758 25.904 14.726 26.2034 14.8262Z" fill="white"/>
<path d="M30.7949 14.4756C31.5436 16.1285 32.2424 17.7313 33.0409 19.4844C30.3457 20.0353 30.1461 19.5845 30.0962 14.8262C30.2958 14.6759 30.5454 14.5758 30.7949 14.4756Z" fill="white"/>
<path d="M20.663 5.35917C19.5649 4.50768 18.7663 3.90662 17.9678 3.25548C18.0676 3.10521 18.1175 2.95495 18.2173 2.80469C19.6148 2.80469 21.0123 2.80469 23.0587 2.80469C22.0106 3.90662 21.3118 4.65794 20.663 5.35917Z" fill="white"/>
</g>
<defs>
<clipPath id="clip0_2006_391">
<rect width="56" height="57" fill="white"/>
</clipPath>
</defs>
</svg>
