<svg width="20" height="49" viewBox="0 0 20 49" fill="none" xmlns="http://www.w3.org/2000/svg">
<g clip-path="url(#clip0_2006_383)">
<path d="M0.0863931 24.4775C0.0863931 17.0411 0.12959 9.60483 0.0431965 2.16852C0.0431965 0.575024 0.431966 -0.0446692 2.07343 -0.000405452C7.34341 0.0881221 12.5702 0.0881221 17.8402 -0.000405452C19.4384 -0.0446692 19.9568 0.486496 19.9568 2.12426C19.9136 15.5804 19.9568 29.0809 19.9568 42.5371C19.9568 44.1748 20.1296 45.8126 19.9136 47.4061C19.8272 47.9815 18.9633 48.9111 18.4449 48.9111C12.8294 48.9996 7.25702 48.9111 1.64147 48.9553C0 48.9553 0 47.9373 0 46.7864M3.15335 4.33744C4.79482 9.87042 6.3067 15.1821 7.99136 20.3609C8.25054 21.2019 8.85529 22.4856 9.93521 22.5741C10.9719 22.4856 11.7927 21.1577 12.0518 20.2724C13.5637 15.005 14.8596 9.6491 16.1555 4.33744C16.3715 3.36364 15.4644 2.96527 15.0756 2.96527C11.7063 2.83248 8.16415 2.78821 4.79482 2.87674C4.27646 2.87674 3.19654 3.00953 3.15335 4.33744Z" fill="white"/>
</g>
<defs>
<clipPath id="clip0_2006_383">
<rect width="20" height="49" fill="white"/>
</clipPath>
</defs>
</svg>
