<svg width="49" height="49" viewBox="0 0 49 49" fill="none" xmlns="http://www.w3.org/2000/svg">
<g clip-path="url(#clip0_2002_505)">
<path d="M47.1387 9.82659L27.0827 3.14184C25.4065 2.58293 23.5943 2.58293 21.9181 3.14184L1.86132 9.82659C1.31932 10.0074 0.847912 10.354 0.513859 10.8176C0.179807 11.2811 3.48553e-05 11.8379 0 12.4093L0 16.5786L22.5451 9.81468C23.8237 9.43187 25.1754 9.43187 26.4566 9.81468L49 16.5786V12.4093C49 11.2379 48.2505 10.1975 47.1387 9.82659ZM23.3277 12.4229L0 19.4216V38.8497C0 40.1258 0.886423 41.23 2.13184 41.5073L22.7289 46.084C23.8956 46.3435 25.1052 46.3435 26.272 46.084L46.869 41.5073C48.1144 41.2308 49.0009 40.1258 49.0009 38.8497V19.4207L25.6748 12.4229C24.9058 12.1915 24.0934 12.1915 23.3277 12.4229ZM10.8889 22.2978C10.8889 22.6049 10.6839 22.8737 10.3878 22.9545L3.58227 24.8107C3.14927 24.9281 2.72222 24.6023 2.72222 24.154V22.7435C2.72222 22.4364 2.92724 22.1676 3.22328 22.0868L10.0288 20.2306C10.4618 20.1123 10.8889 20.4382 10.8889 20.8873V22.2978ZM23.1389 18.9562C23.1389 19.2633 22.9339 19.5322 22.6378 19.613L14.4712 21.8401C14.0382 21.9583 13.6111 21.6325 13.6111 21.1834V19.7729C13.6111 19.4658 13.8161 19.197 14.1122 19.1162L22.2788 16.8891C22.7118 16.7708 23.1389 17.0966 23.1389 17.5458V18.9562ZM38.1111 20.8873C38.1111 20.4382 38.5382 20.1123 38.9712 20.2306L45.7767 22.0868C46.0728 22.1676 46.2778 22.4364 46.2778 22.7435V24.154C46.2778 24.6032 45.8507 24.929 45.4177 24.8107L38.6122 22.9545C38.4682 22.9152 38.3411 22.8296 38.2506 22.7109C38.16 22.5922 38.111 22.447 38.1111 22.2978V20.8873ZM25.8611 17.5466C25.8611 17.0975 26.2882 16.7717 26.7212 16.8899L34.8878 19.117C35.1839 19.1978 35.3889 19.4667 35.3889 19.7738V21.1842C35.3889 21.6334 34.9618 21.9592 34.5288 21.841L26.3622 19.6138C26.2182 19.5745 26.0911 19.4889 26.0006 19.3702C25.91 19.2515 25.861 19.1064 25.8611 18.9571V17.5466Z" fill="white"/>
</g>
<defs>
<clipPath id="clip0_2002_505">
<rect width="49" height="49" fill="white"/>
</clipPath>
</defs>
</svg>
