<svg width="324" height="324" viewBox="0 0 324 324" fill="none" xmlns="http://www.w3.org/2000/svg">
<path d="M243 108V175.5C243 220.235 206.735 256.5 162 256.5C117.265 256.5 81 220.235 81 175.5V108C81 63.2649 117.265 27 162 27C185.989 27 207.544 37.4287 222.375 54" stroke="#2D9AC8" stroke-width="15" stroke-linecap="round"/>
<path d="M135 87.75C135 87.75 141.381 81 162 81C182.619 81 189 87.75 189 87.75" stroke="#2D9AC8" stroke-width="15" stroke-linecap="round"/>
<path d="M135 128.25C135 128.25 141.381 121.5 162 121.5C182.619 121.5 189 128.25 189 128.25" stroke="#2D9AC8" stroke-width="15" stroke-linecap="round"/>
<path d="M283.5 148.5V175.5C283.5 223.205 256.006 264.489 216 284.371M40.5 148.5V175.5C40.5 242.603 94.8974 297 162 297" stroke="#2D9AC8" stroke-width="15" stroke-linecap="round"/>
</svg>
